<svg xmlns="http://www.w3.org/2000/svg" width="800" height="100" viewBox="0 0 280 60">
    <defs>
        <style>
            .cls-2{fill:#d9d9d9}.cls-3{fill:#f36a10}.cls-7{fill:#0095d0}
        </style>
    </defs>
    <g id="Group_4669" data-name="Group 4669" transform="translate(-103.2 -166.312)">
        <text id="ORFI" transform="translate(151.25 166.312)" style="font-size:46px;font-family: 'Poppins', sans-serif;"><tspan x="0" y="37">ORFI CMS</tspan></text>
        <g id="Group_3915" data-name="Group 3915" transform="translate(103.2 169.192)">
            <g id="Group_3914" data-name="Group 3914">
                <g id="Group_3913" data-name="Group 3913" transform="translate(12.923 37.03)">
                    <path id="Path_8773" data-name="Path 8773" class="cls-2" d="M465.689 664.469a18.949 18.949 0 0 0 4.415.525v-.008a19.163 19.163 0 0 1-4.415-.517z" transform="translate(-464.001 -663.986)"/>
                    <path id="Path_8774" data-name="Path 8774" class="cls-2" d="M463.561 663.874c-.129-.04-.257-.081-.385-.124.124.043.256.083.385.124z" transform="translate(-463.176 -663.75)"/>
                    <path id="Path_8775" data-name="Path 8775" class="cls-2" d="m464.651 664.207.065.019.06.017c.094.025.189.044.283.068a18.767 18.767 0 0 1-.618-.167c.07.019.139.043.21.063z" transform="translate(-463.591 -663.879)"/>
                    <path id="Path_8776" data-name="Path 8776" class="cls-3" d="M464.214 664.074z" transform="translate(-463.364 -663.81)"/>
                    <path id="Path_8777" data-name="Path 8777" class="cls-3" d="m465.581 664.443-.22-.052z" transform="translate(-463.894 -663.961)"/>
                </g>
                <path id="Path_8778" data-name="Path 8778" d="M494.8 627.516a19.131 19.131 0 0 0-2.934-6.728v.136a4.86 4.86 0 0 1-1.428 3.447l-3.467 3.462a11.219 11.219 0 0 1 .266 6.679 3.172 3.172 0 0 0-.035.131 11.35 11.35 0 0 1-2.858 4.966 3.816 3.816 0 0 1 5.436 5.352 18.9 18.9 0 0 0 4.793-8.294l.019-.063.016-.059a18.925 18.925 0 0 0 .192-9.029z" transform="translate(-457.207 -612.609)" style="fill:#dcddde"/>
                <path id="Path_8779" data-name="Path 8779" d="M479.218 648.356a3.821 3.821 0 0 0-5.34-.058 10.81 10.81 0 0 1-3.831 2.555h-.009q-.5.2-1.025.359l-.025.007q-.509.15-1.032.252l-.044.009q-.5.1-1.017.146l-.093.009q-.475.043-.958.046h-.081v.015c-.16 0-.319-.016-.479-.023-.079 0-.157-.006-.236-.011-.318-.02-.635-.055-.95-.1l-.136-.02q-.516-.083-1.024-.214l-.061-.013-.089-.024a11.251 11.251 0 0 1-1.085-.354l-.069-.024c-.248-.1-.49-.21-.731-.324-.119-.056-.241-.107-.358-.167s-.22-.126-.331-.188a11.04 11.04 0 0 1-.7-.417h-.007a11.386 11.386 0 0 1-1.825-1.5l.041.045a3.819 3.819 0 0 1-5.246 5.547 18.873 18.873 0 0 0 4.691 3.379c.267.136.539.264.815.388l.117.051q.354.155.716.3l.246.093q.3.112.6.215c.128.043.256.083.385.124.154.048.308.1.465.14.2.058.411.115.618.167l.22.052a19.17 19.17 0 0 0 4.415.517v.008a19.068 19.068 0 0 0 13.551-5.685 3.819 3.819 0 0 0-.098-5.302z" transform="translate(-446.738 -621.297)" style="fill:#f58220"/>
                <path id="Path_8780" data-name="Path 8780" d="M449.5 622.3a3.826 3.826 0 0 1 0-5.411c-.309.309-.6.629-.884.954q-.106.121-.209.244c-.276.326-.544.658-.794 1a19.98 19.98 0 0 0-.874 1.308c-.22.357-.431.719-.625 1.087l-.017.034c-.09.171-.173.346-.257.519l-.051.1c-.067.143-.134.284-.2.429l-.109.25a19.759 19.759 0 0 0-.9 2.6 18.965 18.965 0 0 0 1.907 14.436h.007a19.169 19.169 0 0 0 3.171 4.08 3.819 3.819 0 0 0 5.246-5.547l-.041-.045c-.22-.222-.426-.455-.627-.693-.056-.067-.114-.133-.169-.2a11.028 11.028 0 0 1-.697-.973c-.093-.144-.2-.281-.283-.429l-.007-.011h.007c-.05-.087-.089-.179-.137-.267a11.259 11.259 0 0 1-.791-1.841c-.024-.071-.052-.139-.074-.211l-.084-.289a11.61 11.61 0 0 1-.163-.668 11.432 11.432 0 0 1-.222-1.467 11.279 11.279 0 0 1-.039-.825c0-.04-.006-.079-.006-.118a11.411 11.411 0 0 1 .142-1.717c.015-.1.026-.2.044-.3.032-.177.073-.351.113-.526.031-.135.051-.27.087-.4.014-.054.035-.1.05-.158.045-.158.1-.313.15-.469.072-.221.145-.441.228-.654.023-.059.051-.117.076-.176a11.224 11.224 0 0 1 2.3-3.521 3.817 3.817 0 0 1-5.268-.125z" transform="translate(-443.933 -611.329)" style="fill:#8cc63f"/>
                <path id="Path_8781" data-name="Path 8781" class="cls-7" d="M478.974 614.69a4.478 4.478 0 0 0-.633-.756c-.034-.034-.069-.067-.1-.1-.017-.015-.013-.011 0 0a19.045 19.045 0 0 0-26.555.332 3.82 3.82 0 0 0 5.268 5.53 10.839 10.839 0 0 1 2.287-1.819c.122-.072.251-.13.375-.2.287-.161.579-.3.875-.439l.026-.013c.3-.134.606-.254.914-.361l.031-.011a11.174 11.174 0 0 1 1.156-.333l.032-.008c.327-.074.656-.131.987-.175.066-.009.132-.023.2-.031a10.47 10.47 0 0 1 2.334-.024c.063.006.126.009.189.016.357.039.713.1 1.065.171.095.02.189.039.283.06a11.363 11.363 0 0 1 2.362.822l-1.69 1.684c-.021.021-.035.046-.055.067l-3.182 3.175 5.391 5.392 4.008-4 3.82-3.806c.012-.013.02-.026.032-.038l.211-.211a3.8 3.8 0 0 0 .369-4.924z" transform="translate(-446.109 -608.609)"/>
                <path id="Path_8782" data-name="Path 8782" class="cls-7" d="M468.3 640.178c.182.093.975-.3 1.5-.57l-.961-.96c-.284.552-.709 1.444-.539 1.53z" transform="translate(-451.923 -618.475)"/>
                <path id="Path_8783" data-name="Path 8783" class="cls-7" d="m469.46 634.814 1.8 1.8 4.6-1.307-5.049-5.05z" transform="translate(-452.317 -615.719)"/>
            </g>
        </g>
    </g>
</svg>
